<svg version="1.1" id="Layer_1" xmlns="http://www.w3.org/2000/svg" xmlns:xlink="http://www.w3.org/1999/xlink" x="0px" y="0px"
	 width="100%" viewBox="0 0 500 500" enable-background="new 0 0 500 500" xml:space="preserve">
<path fill="#FFFFFF" opacity="1.000000" stroke="none" 
	d="
M226.000000,501.000000 
	C150.666687,501.000000 75.833366,501.000000 1.000040,501.000000 
	C1.000027,334.333405 1.000027,167.666779 1.000013,1.000130 
	C167.666565,1.000086 334.333130,1.000086 500.999756,1.000043 
	C500.999847,167.666534 500.999847,334.333069 500.999939,500.999817 
	C409.500000,501.000000 318.000000,501.000000 226.000000,501.000000 
M265.281799,254.722275 
	C265.950836,259.374512 270.590820,263.594452 266.740173,268.715942 
	C272.127258,268.715942 277.442352,268.715942 282.757446,268.715942 
	C282.886108,268.146973 283.014801,267.578003 283.143494,267.009033 
	C279.169556,265.887665 275.195648,264.766327 270.357513,263.401123 
	C269.460815,261.053650 268.111481,257.521179 266.680664,253.259338 
	C265.431519,248.160690 263.506348,244.074677 258.026550,241.566986 
	C251.691635,238.667969 248.848907,232.743988 249.196732,225.358856 
	C249.809296,225.229614 250.432129,225.114151 251.047043,224.965881 
	C254.692703,224.086868 256.984863,221.569107 255.743332,218.126831 
	C254.991669,216.042816 252.055527,213.623230 249.905457,213.419846 
	C246.322495,213.080948 244.554886,215.970108 244.304596,219.672424 
	C244.228043,220.804764 243.375320,222.061035 242.535172,222.928421 
	C240.810913,224.708603 238.525085,226.013214 237.048096,227.953384 
	C227.840103,240.048920 223.440918,254.259872 219.005493,268.502930 
	C223.235504,269.801178 225.683151,268.758484 227.485229,265.058258 
	C229.713959,260.481934 232.566498,256.209412 235.533020,251.151764 
	C238.866043,256.012695 242.167130,260.191742 244.748154,264.776215 
	C247.159302,269.058929 250.371262,269.761871 254.394852,268.676788 
	C250.520096,258.619446 246.662964,248.607880 242.805832,238.596298 
	C246.822769,239.549286 249.476273,241.613205 252.431732,242.229843 
	C259.224731,243.647095 263.933380,246.822281 265.281799,254.722275 
M293.087799,220.113892 
	C293.087799,236.354843 293.087799,252.595795 293.087799,269.030731 
	C298.244568,269.030731 302.733429,269.079742 307.220886,269.020477 
	C316.522400,268.897644 323.735352,263.272766 326.217407,254.279617 
	C328.556763,245.803421 325.128418,237.122665 317.503723,232.216202 
	C313.895966,229.894638 312.658142,222.005066 315.392090,218.757156 
	C322.983917,209.738159 324.398895,200.066437 319.428192,191.169403 
	C314.332306,182.048264 305.632477,178.414886 293.374603,180.144882 
	C292.277069,180.299789 290.865601,179.978256 289.947723,179.360901 
	C285.555786,176.406967 281.283783,173.274750 275.755280,169.342514 
	C273.438354,156.794830 268.232697,150.223267 257.729187,149.585449 
	C253.782043,149.345779 249.412201,150.393982 245.771317,152.040710 
	C239.450058,154.899719 236.826691,160.962341 235.429672,167.459335 
	C224.984268,166.089127 218.307465,170.317184 214.931503,179.844818 
	C205.888260,178.287003 198.444611,180.887161 193.496292,188.452332 
	C187.467285,197.669724 189.658524,206.448166 195.792130,213.662979 
	C193.831238,217.917267 191.588455,221.354187 190.717682,225.109268 
	C189.976212,228.306732 188.891327,230.072479 185.844131,231.523956 
	C178.173386,235.177734 174.111893,243.309677 175.070709,251.761124 
	C175.938889,259.413818 181.814651,267.036072 189.680832,268.264404 
	C196.567902,269.339874 203.755814,268.488861 211.004120,268.488861 
	C211.004120,252.936356 211.069199,237.620285 210.893372,222.306961 
	C210.877533,220.928192 209.504715,219.367752 208.394470,218.260223 
	C207.480759,217.348770 206.021332,216.984375 204.803757,216.377533 
	C205.654892,215.067383 206.255814,213.463928 207.395325,212.491791 
	C220.948669,200.929260 234.638016,189.525665 248.149323,177.914719 
	C250.970825,175.490082 252.895248,175.405075 255.783051,177.897995 
	C268.511963,188.886414 281.436401,199.648422 294.299133,210.481628 
	C300.932861,216.068665 300.941498,216.058411 293.087799,220.113892 
M260.825714,287.556610 
	C261.948456,290.292786 262.887268,293.329010 267.212189,291.395416 
	C265.578644,287.988892 264.392517,285.063690 266.560303,281.183746 
	C268.069977,278.481750 265.537445,275.721924 262.268097,275.274933 
	C259.555084,274.903992 256.751038,275.198975 253.792603,275.198975 
	C253.792603,280.980408 253.792603,286.258301 253.792603,291.743225 
	C255.213150,291.743225 256.448486,291.743225 257.907806,291.743225 
	C257.987366,290.030884 257.962585,288.545868 258.224548,287.113312 
	C258.263611,286.899567 259.650299,286.932251 260.825714,287.556610 
M220.644165,275.060455 
	C219.513107,275.861938 217.463425,276.600983 217.403976,277.475311 
	C217.081619,282.217529 217.251007,286.993164 217.251007,292.706421 
	C222.053207,291.934723 226.528885,292.207947 229.896362,290.407928 
	C233.600739,288.427887 230.079529,285.113739 229.568558,282.224579 
	C228.318787,275.158264 228.706604,275.089661 220.644165,275.060455 
M250.912704,281.909729 
	C249.575439,277.142822 246.552704,274.555786 241.484314,274.949860 
	C237.341629,275.271973 234.846191,277.745148 233.942902,281.694763 
	C232.790176,286.735077 236.139084,291.584991 241.112473,292.327820 
	C246.621490,293.150665 250.509613,289.363403 250.912704,281.909729 
M272.198883,275.103943 
	C271.457062,275.742584 270.096680,276.358307 270.072083,277.023468 
	C269.889862,281.950226 269.973389,286.886780 269.973389,291.513367 
	C276.434570,293.710358 273.449280,287.837036 275.167297,286.031952 
	C280.409271,292.185760 280.409271,292.185760 284.102325,291.200928 
	C282.250458,286.345551 275.718903,282.593475 280.231537,275.925903 
	C278.580261,277.313721 276.928986,278.701569 275.424225,279.966278 
	C274.506653,278.120575 273.763123,276.624908 272.198883,275.103943 
M299.353516,287.017517 
	C298.216980,283.717407 297.184387,280.375183 295.874725,277.145294 
	C295.524139,276.280701 294.406708,275.403290 293.492859,275.200439 
	C292.842957,275.056213 291.486633,275.859619 291.229645,276.537384 
	C289.340088,281.520813 287.648041,286.579163 285.893799,291.613922 
	C287.554962,291.739655 288.400726,291.481567 288.784973,290.912048 
	C291.641235,286.678162 292.494781,286.753784 295.967010,290.696350 
	C296.883606,291.737122 298.905212,291.804657 301.187531,292.580048 
	C300.461029,290.222198 300.076508,288.974121 299.353516,287.017517 
M208.073853,280.199066 
	C206.807343,277.223969 206.115967,273.406250 201.538330,275.480530 
	C202.783997,279.929901 204.521774,284.263458 205.095459,288.746002 
	C205.605408,292.730591 207.205368,292.429047 208.609924,291.900574 
	C210.729797,285.707764 212.493469,280.555573 214.257141,275.403351 
	C214.025452,275.204407 213.793762,275.005463 213.562088,274.806519 
	C211.869781,276.813995 210.177475,278.821472 208.073853,280.199066 
M258.348907,259.120453 
	C259.065613,263.450287 261.493774,265.328796 266.451843,264.671509 
	C264.673035,259.499481 263.041504,254.755707 261.410004,250.011917 
	C261.015686,250.004745 260.621338,249.997574 260.227020,249.990402 
	C259.593018,252.771912 258.958984,255.553421 258.348907,259.120453 
M276.832367,221.019272 
	C276.935516,220.888931 277.074463,220.771271 277.126953,220.623001 
	C277.153778,220.547333 277.050659,220.384720 276.963348,220.315689 
	C275.035919,218.791672 273.102478,217.275253 271.850616,216.291901 
	C270.535828,217.690933 268.946442,219.382095 267.622131,220.791245 
	C268.810577,222.059494 270.530518,223.894913 271.696869,225.139603 
	C273.113525,223.949982 274.677185,222.636917 276.832367,221.019272 
M294.159607,158.627899 
	C295.471527,158.023041 296.783478,157.418182 297.696472,156.997253 
	C295.901611,155.306488 294.108215,153.617142 292.867371,152.448303 
	C291.346375,153.860199 289.667419,155.418762 288.529877,156.474686 
	C289.988556,158.117401 291.539581,159.864090 293.126831,161.651611 
	C293.328827,161.089020 293.650543,160.193069 294.159607,158.627899 
z"/>
<path fill="#1EB2DC" opacity="1.000000" stroke="none" 
	d="
M293.236328,219.699371 
	C300.941498,216.058411 300.932861,216.068665 294.299133,210.481628 
	C281.436401,199.648422 268.511963,188.886414 255.783051,177.897995 
	C252.895248,175.405075 250.970825,175.490082 248.149323,177.914719 
	C234.638016,189.525665 220.948669,200.929260 207.395325,212.491791 
	C206.255814,213.463928 205.654892,215.067383 204.803757,216.377533 
	C206.021332,216.984375 207.480759,217.348770 208.394470,218.260223 
	C209.504715,219.367752 210.877533,220.928192 210.893372,222.306961 
	C211.069199,237.620285 211.004120,252.936356 211.004120,268.488861 
	C203.755814,268.488861 196.567902,269.339874 189.680832,268.264404 
	C181.814651,267.036072 175.938889,259.413818 175.070709,251.761124 
	C174.111893,243.309677 178.173386,235.177734 185.844131,231.523956 
	C188.891327,230.072479 189.976212,228.306732 190.717682,225.109268 
	C191.588455,221.354187 193.831238,217.917267 195.792130,213.662979 
	C189.658524,206.448166 187.467285,197.669724 193.496292,188.452332 
	C198.444611,180.887161 205.888260,178.287003 214.931503,179.844818 
	C218.307465,170.317184 224.984268,166.089127 235.429672,167.459335 
	C236.826691,160.962341 239.450058,154.899719 245.771317,152.040710 
	C249.412201,150.393982 253.782043,149.345779 257.729187,149.585449 
	C268.232697,150.223267 273.438354,156.794830 275.755280,169.342514 
	C281.283783,173.274750 285.555786,176.406967 289.947723,179.360901 
	C290.865601,179.978256 292.277069,180.299789 293.374603,180.144882 
	C305.632477,178.414886 314.332306,182.048264 319.428192,191.169403 
	C324.398895,200.066437 322.983917,209.738159 315.392090,218.757156 
	C312.658142,222.005066 313.895966,229.894638 317.503723,232.216202 
	C325.128418,237.122665 328.556763,245.803421 326.217407,254.279617 
	C323.735352,263.272766 316.522400,268.897644 307.220886,269.020477 
	C302.733429,269.079742 298.244568,269.030731 293.087799,269.030731 
	C293.087799,252.595795 293.087799,236.354843 293.236328,219.699371 
M205.901672,185.409897 
	C205.811478,185.270859 205.741211,185.108795 205.620834,185.004623 
	C205.575439,184.965347 205.332458,185.038696 205.317245,185.096771 
	C204.264206,189.117462 202.947418,192.880173 197.270874,193.038223 
	C203.027481,193.150940 204.475281,196.949341 205.542114,201.380844 
	C205.839111,196.260010 208.352478,193.523911 213.582611,192.916840 
	C208.721161,192.515915 206.265442,190.474121 205.901672,185.409897 
M306.470612,249.611160 
	C311.032898,249.389496 311.868866,252.742767 312.287231,255.609985 
	C314.298920,253.217239 316.378967,250.743179 318.679321,248.007095 
	C313.141510,249.048798 314.737579,243.401657 312.242981,240.383209 
	C312.293152,245.406479 310.453979,248.229080 305.608429,248.184723 
	C305.688385,248.576813 305.768341,248.968887 306.470612,249.611160 
M300.106171,186.928650 
	C299.886536,186.559616 299.666901,186.190567 299.447266,185.821518 
	C299.338806,185.945724 299.210785,186.057724 299.124817,186.195923 
	C297.505249,188.798691 295.890656,191.404572 294.780212,193.195221 
	C296.361572,195.142807 298.211121,197.420715 299.892059,199.490967 
	C300.194183,198.575439 300.317108,196.493851 301.415558,195.344910 
	C302.561707,194.146042 304.647736,193.845673 305.295319,193.577698 
	C303.582336,191.542542 301.929016,189.578278 300.106171,186.928650 
M193.058548,249.920074 
	C193.336807,249.416443 193.942581,248.553024 193.844040,248.463348 
	C192.446213,247.190964 190.952911,246.023483 190.036499,245.279953 
	C188.386566,246.666718 186.838318,247.968002 185.582733,249.023331 
	C186.913269,250.138885 188.575836,251.532837 190.229721,252.919495 
	C190.763657,252.201233 191.571091,251.115067 193.058548,249.920074 
z"/>
<path fill="#22B4DD" opacity="1.000000" stroke="none" 
	d="
M265.229340,253.983826 
	C263.933380,246.822281 259.224731,243.647095 252.431732,242.229843 
	C249.476273,241.613205 246.822769,239.549286 242.805832,238.596298 
	C246.662964,248.607880 250.520096,258.619446 254.394852,268.676788 
	C250.371262,269.761871 247.159302,269.058929 244.748154,264.776215 
	C242.167130,260.191742 238.866043,256.012695 235.533020,251.151764 
	C232.566498,256.209412 229.713959,260.481934 227.485229,265.058258 
	C225.683151,268.758484 223.235504,269.801178 219.005493,268.502930 
	C223.440918,254.259872 227.840103,240.048920 237.048096,227.953384 
	C238.525085,226.013214 240.810913,224.708603 242.535172,222.928421 
	C243.375320,222.061035 244.228043,220.804764 244.304596,219.672424 
	C244.554886,215.970108 246.322495,213.080948 249.905457,213.419846 
	C252.055527,213.623230 254.991669,216.042816 255.743332,218.126831 
	C256.984863,221.569107 254.692703,224.086868 251.047043,224.965881 
	C250.432129,225.114151 249.809296,225.229614 249.196732,225.358856 
	C248.848907,232.743988 251.691635,238.667969 258.026550,241.566986 
	C263.506348,244.074677 265.431519,248.160690 266.465942,253.621414 
	C265.910583,253.983597 265.569977,253.983719 265.229340,253.983826 
M235.018570,252.107849 
	C234.808685,251.142990 234.598816,250.178116 234.388947,249.213257 
	C234.067596,249.343246 233.746246,249.473236 233.424896,249.603226 
	C233.711823,250.334412 233.998749,251.065598 235.018570,252.107849 
z"/>
<path fill="#24B4DD" opacity="1.000000" stroke="none" 
	d="
M260.619629,287.203796 
	C259.650299,286.932251 258.263611,286.899567 258.224548,287.113312 
	C257.962585,288.545868 257.987366,290.030884 257.907806,291.743225 
	C256.448486,291.743225 255.213150,291.743225 253.792603,291.743225 
	C253.792603,286.258301 253.792603,280.980408 253.792603,275.198975 
	C256.751038,275.198975 259.555084,274.903992 262.268097,275.274933 
	C265.537445,275.721924 268.069977,278.481750 266.560303,281.183746 
	C264.392517,285.063690 265.578644,287.988892 267.212189,291.395416 
	C262.887268,293.329010 261.948456,290.292786 260.619629,287.203796 
z"/>
<path fill="#2EB8DF" opacity="1.000000" stroke="none" 
	d="
M221.089676,275.060028 
	C228.706604,275.089661 228.318787,275.158264 229.568558,282.224579 
	C230.079529,285.113739 233.600739,288.427887 229.896362,290.407928 
	C226.528885,292.207947 222.053207,291.934723 217.251007,292.706421 
	C217.251007,286.993164 217.081619,282.217529 217.403976,277.475311 
	C217.463425,276.600983 219.513107,275.861938 221.089676,275.060028 
M226.612961,287.402069 
	C225.535690,286.172852 224.458435,284.943665 223.381165,283.714478 
	C222.975037,284.029572 222.568909,284.344696 222.162781,284.659821 
	C222.162781,286.253448 222.162781,287.847107 222.162781,290.576263 
	C224.000229,289.515747 225.191757,288.828033 226.612961,287.402069 
z"/>
<path fill="#27B5DE" opacity="1.000000" stroke="none" 
	d="
M250.949371,282.310059 
	C250.509613,289.363403 246.621490,293.150665 241.112473,292.327820 
	C236.139084,291.584991 232.790176,286.735077 233.942902,281.694763 
	C234.846191,277.745148 237.341629,275.271973 241.484314,274.949860 
	C246.552704,274.555786 249.575439,277.142822 250.949371,282.310059 
M244.891205,288.123566 
	C245.210388,287.356934 245.930252,286.498291 245.778946,285.839752 
	C245.146011,283.084839 244.251724,280.389984 243.453201,277.673126 
	C242.331512,278.035217 240.289032,278.297699 240.237350,278.775543 
	C239.897842,281.914429 239.869827,285.109741 240.134109,288.253510 
	C240.158493,288.543671 242.936691,288.602356 244.891205,288.123566 
z"/>
<path fill="#22B4DD" opacity="1.000000" stroke="none" 
	d="
M272.609222,275.116577 
	C273.763123,276.624908 274.506653,278.120575 275.424225,279.966278 
	C276.928986,278.701569 278.580261,277.313721 280.231537,275.925903 
	C275.718903,282.593475 282.250458,286.345551 284.102325,291.200928 
	C280.409271,292.185760 280.409271,292.185760 275.167297,286.031952 
	C273.449280,287.837036 276.434570,293.710358 269.973389,291.513367 
	C269.973389,286.886780 269.889862,281.950226 270.072083,277.023468 
	C270.096680,276.358307 271.457062,275.742584 272.609222,275.116577 
z"/>
<path fill="#2EB8DF" opacity="1.000000" stroke="none" 
	d="
M299.522736,287.371796 
	C300.076508,288.974121 300.461029,290.222198 301.187531,292.580048 
	C298.905212,291.804657 296.883606,291.737122 295.967010,290.696350 
	C292.494781,286.753784 291.641235,286.678162 288.784973,290.912048 
	C288.400726,291.481567 287.554962,291.739655 285.893799,291.613922 
	C287.648041,286.579163 289.340088,281.520813 291.229645,276.537384 
	C291.486633,275.859619 292.842957,275.056213 293.492859,275.200439 
	C294.406708,275.403290 295.524139,276.280701 295.874725,277.145294 
	C297.184387,280.375183 298.216980,283.717407 299.522736,287.371796 
z"/>
<path fill="#2EB8DF" opacity="1.000000" stroke="none" 
	d="
M208.279510,280.514008 
	C210.177475,278.821472 211.869781,276.813995 213.562088,274.806519 
	C213.793762,275.005463 214.025452,275.204407 214.257141,275.403351 
	C212.493469,280.555573 210.729797,285.707764 208.609924,291.900574 
	C207.205368,292.429047 205.605408,292.730591 205.095459,288.746002 
	C204.521774,284.263458 202.783997,279.929901 201.538330,275.480530 
	C206.115967,273.406250 206.807343,277.223969 208.279510,280.514008 
z"/>
<path fill="#2EB8DF" opacity="1.000000" stroke="none" 
	d="
M265.255554,254.353058 
	C265.569977,253.983719 265.910583,253.983597 266.506683,253.986099 
	C268.111481,257.521179 269.460815,261.053650 270.357513,263.401123 
	C275.195648,264.766327 279.169556,265.887665 283.143494,267.009033 
	C283.014801,267.578003 282.886108,268.146973 282.757446,268.715942 
	C277.442352,268.715942 272.127258,268.715942 266.740173,268.715942 
	C270.590820,263.594452 265.950836,259.374512 265.255554,254.353058 
z"/>
<path fill="#2EB8DF" opacity="1.000000" stroke="none" 
	d="
M258.336945,258.727692 
	C258.958984,255.553421 259.593018,252.771912 260.227020,249.990402 
	C260.621338,249.997574 261.015686,250.004745 261.410004,250.011917 
	C263.041504,254.755707 264.673035,259.499481 266.451843,264.671509 
	C261.493774,265.328796 259.065613,263.450287 258.336945,258.727692 
z"/>
<path fill="#41BEE2" opacity="1.000000" stroke="none" 
	d="
M276.536621,221.171555 
	C274.677185,222.636917 273.113525,223.949982 271.696869,225.139603 
	C270.530518,223.894913 268.810577,222.059494 267.622131,220.791245 
	C268.946442,219.382095 270.535828,217.690933 271.850616,216.291901 
	C273.102478,217.275253 275.035919,218.791672 276.963348,220.315689 
	C277.050659,220.384720 277.153778,220.547333 277.126953,220.623001 
	C277.074463,220.771271 276.935516,220.888931 276.536621,221.171555 
z"/>
<path fill="#41BEE2" opacity="1.000000" stroke="none" 
	d="
M294.065918,158.962509 
	C293.650543,160.193069 293.328827,161.089020 293.126831,161.651611 
	C291.539581,159.864090 289.988556,158.117401 288.529877,156.474686 
	C289.667419,155.418762 291.346375,153.860199 292.867371,152.448303 
	C294.108215,153.617142 295.901611,155.306488 297.696472,156.997253 
	C296.783478,157.418182 295.471527,158.023041 294.065918,158.962509 
z"/>
<path fill="#E4F6FB" opacity="1.000000" stroke="none" 
	d="
M205.971146,185.742264 
	C206.265442,190.474121 208.721161,192.515915 213.582611,192.916840 
	C208.352478,193.523911 205.839111,196.260010 205.542114,201.380844 
	C204.475281,196.949341 203.027481,193.150940 197.270874,193.038223 
	C202.947418,192.880173 204.264206,189.117462 205.317245,185.096771 
	C205.332458,185.038696 205.575439,184.965347 205.620834,185.004623 
	C205.741211,185.108795 205.811478,185.270859 205.971146,185.742264 
z"/>
<path fill="#E4F6FB" opacity="1.000000" stroke="none" 
	d="
M306.159485,249.486053 
	C305.768341,248.968887 305.688385,248.576813 305.608429,248.184723 
	C310.453979,248.229080 312.293152,245.406479 312.242981,240.383209 
	C314.737579,243.401657 313.141510,249.048798 318.679321,248.007095 
	C316.378967,250.743179 314.298920,253.217239 312.287231,255.609985 
	C311.868866,252.742767 311.032898,249.389496 306.159485,249.486053 
z"/>
<path fill="#E4F6FB" opacity="1.000000" stroke="none" 
	d="
M300.190918,187.271332 
	C301.929016,189.578278 303.582336,191.542542 305.295319,193.577698 
	C304.647736,193.845673 302.561707,194.146042 301.415558,195.344910 
	C300.317108,196.493851 300.194183,198.575439 299.892059,199.490967 
	C298.211121,197.420715 296.361572,195.142807 294.780212,193.195221 
	C295.890656,191.404572 297.505249,188.798691 299.124817,186.195923 
	C299.210785,186.057724 299.338806,185.945724 299.447266,185.821518 
	C299.666901,186.190567 299.886536,186.559616 300.190918,187.271332 
z"/>
<path fill="#E4F6FB" opacity="1.000000" stroke="none" 
	d="
M192.718536,249.974487 
	C191.571091,251.115067 190.763657,252.201233 190.229721,252.919495 
	C188.575836,251.532837 186.913269,250.138885 185.582733,249.023331 
	C186.838318,247.968002 188.386566,246.666718 190.036499,245.279953 
	C190.952911,246.023483 192.446213,247.190964 193.844040,248.463348 
	C193.942581,248.553024 193.336807,249.416443 192.718536,249.974487 
z"/>
<path fill="#FFFFFF" opacity="1.000000" stroke="none" 
	d="
M234.652130,251.952316 
	C233.998749,251.065598 233.711823,250.334412 233.424896,249.603226 
	C233.746246,249.473236 234.067596,249.343246 234.388947,249.213257 
	C234.598816,250.178116 234.808685,251.142990 234.652130,251.952316 
z"/>
<path fill="#E4F6FB" opacity="1.000000" stroke="none" 
	d="
M226.498123,287.771179 
	C225.191757,288.828033 224.000229,289.515747 222.162781,290.576263 
	C222.162781,287.847107 222.162781,286.253448 222.162781,284.659821 
	C222.568909,284.344696 222.975037,284.029572 223.381165,283.714478 
	C224.458435,284.943665 225.535690,286.172852 226.498123,287.771179 
z"/>
<path fill="#F3FBFD" opacity="1.000000" stroke="none" 
	d="
M244.663696,288.446045 
	C242.936691,288.602356 240.158493,288.543671 240.134109,288.253510 
	C239.869827,285.109741 239.897842,281.914429 240.237350,278.775543 
	C240.289032,278.297699 242.331512,278.035217 243.453217,277.673126 
	C244.251724,280.389984 245.146011,283.084839 245.778946,285.839752 
	C245.930252,286.498291 245.210388,287.356934 244.663696,288.446045 
z"/>
</svg>